<svg id="Layer_1" data-name="Layer 1" xmlns="http://www.w3.org/2000/svg" viewBox="0 0 479.17 75.11"><defs><style>.cls-1{fill:#f17041;}</style></defs><title>OneTwoOneTwo</title><path d="M98.85,24.29V45.43A14.24,14.24,0,0,1,94.61,56a15.61,15.61,0,0,1-21.35,0A14.16,14.16,0,0,1,69,45.43V24.57a14.22,14.22,0,0,1,4.3-10.5,15.39,15.39,0,0,1,21.28,0A13.89,13.89,0,0,1,98.85,24.29ZM90.31,46V24a6.07,6.07,0,0,0-1.86-4.45,6.39,6.39,0,0,0-9,0A6,6,0,0,0,77.57,24V46a6,6,0,0,0,1.89,4.44,6.36,6.36,0,0,0,9,0A6,6,0,0,0,90.31,46Z"/><path d="M125.52,59.5V36.68a5.63,5.63,0,0,0-1.36-4,4.78,4.78,0,0,0-3.68-1.47,5.18,5.18,0,0,0-3.77,1.5,5.38,5.38,0,0,0-1.54,4V59.5h-8v-35h7.56l.49,3.36c.18-.28.45-.64.8-1.09A9.34,9.34,0,0,1,118.46,25a8.81,8.81,0,0,1,4.34-1.08,9.88,9.88,0,0,1,7.8,3.39q3,3.41,3,9.21v23Z"/><path d="M158.86,49.21H167a11.53,11.53,0,0,1-4.26,8,13.68,13.68,0,0,1-8.9,3,13.13,13.13,0,0,1-9.38-3.43,11.28,11.28,0,0,1-3.64-8.54V35.77a11.25,11.25,0,0,1,3.68-8.51,14.56,14.56,0,0,1,18.76-.07,11.14,11.14,0,0,1,3.6,8.44v9H148.78v3.43a4.85,4.85,0,0,0,1.44,3.64,5,5,0,0,0,3.6,1.4,5.15,5.15,0,0,0,3.23-1,4.15,4.15,0,0,0,1.54-2ZM148.78,35.77V38h10.15V35.77a4.53,4.53,0,0,0-1.43-3.5,5.1,5.1,0,0,0-3.61-1.33,5.23,5.23,0,0,0-3.57,1.36A4.46,4.46,0,0,0,148.78,35.77Z"/><path d="M167.49,18.69V10.5H196.4v8.19h-10V59.5h-9V18.69Z"/><path d="M226.8,37.7V24.5h8.12V38.78L231.21,59.5H219.8l-3.71-16.24-4,16.24H201l-3.71-20.72V24.5h8.12V37.66l1.56,14.14h.71l4-15.77,8.4.11,4,15.74h.82Z"/><path d="M268.2,35.77V48.23a11.32,11.32,0,0,1-3.61,8.54,13.07,13.07,0,0,1-9.41,3.43,13.29,13.29,0,0,1-9.52-3.43A11.24,11.24,0,0,1,242,48.23V35.77a11.24,11.24,0,0,1,3.64-8.54,13.29,13.29,0,0,1,9.52-3.43,13.07,13.07,0,0,1,9.41,3.43A11.32,11.32,0,0,1,268.2,35.77Zm-8.05,12V36.19a4.88,4.88,0,0,0-1.47-3.71,5.43,5.43,0,0,0-7.28,0,4.88,4.88,0,0,0-1.47,3.71V47.81a4.88,4.88,0,0,0,1.47,3.71,5.17,5.17,0,0,0,3.71,1.4,5,5,0,0,0,3.57-1.4A4.88,4.88,0,0,0,260.15,47.81Z"/><path d="M305.62,24.29V45.43A14.27,14.27,0,0,1,301.39,56,15.61,15.61,0,0,1,280,56a14.17,14.17,0,0,1-4.31-10.53V24.57A14.23,14.23,0,0,1,280,14.07a15.39,15.39,0,0,1,21.28,0A13.88,13.88,0,0,1,305.62,24.29ZM297.08,46V24a6.06,6.06,0,0,0-1.85-4.45,6.4,6.4,0,0,0-9,0A6,6,0,0,0,284.34,24V46a6,6,0,0,0,1.89,4.44,6.37,6.37,0,0,0,9,0A6,6,0,0,0,297.08,46Z"/><path d="M332.3,59.5V36.68a5.63,5.63,0,0,0-1.36-4,4.78,4.78,0,0,0-3.68-1.47,5.22,5.22,0,0,0-3.78,1.5,5.38,5.38,0,0,0-1.54,4V59.5h-8.05v-35h7.56l.49,3.36c.19-.28.46-.64.81-1.09A9.23,9.23,0,0,1,325.23,25a8.84,8.84,0,0,1,4.34-1.08,9.91,9.91,0,0,1,7.81,3.39q3,3.41,3,9.21v23Z"/><path d="M365.64,49.21h8.12a11.54,11.54,0,0,1-4.27,8,13.65,13.65,0,0,1-8.89,3,13.11,13.11,0,0,1-9.38-3.43,11.24,11.24,0,0,1-3.64-8.54V35.77a11.21,11.21,0,0,1,3.68-8.51A14.54,14.54,0,0,1,370,27.19a11.12,11.12,0,0,1,3.61,8.44v9H355.56v3.43A4.85,4.85,0,0,0,357,51.73a4.94,4.94,0,0,0,3.6,1.4,5.1,5.1,0,0,0,3.22-1,4.09,4.09,0,0,0,1.54-2ZM355.56,35.77V38h10.15V35.77a4.54,4.54,0,0,0-1.44-3.5,5.05,5.05,0,0,0-3.6-1.33,5.23,5.23,0,0,0-3.57,1.36A4.43,4.43,0,0,0,355.56,35.77Z"/><path d="M374.26,18.69V10.5h28.91v8.19h-10V59.5h-9V18.69Z"/><path d="M433.57,37.7V24.5h8.12V38.78L438,59.5H426.57l-3.71-16.24-4,16.24H407.74L404,38.78V24.5h8.12V37.66l1.56,14.14h.71l4-15.77,8.4.11,4,15.74h.82Z"/><path d="M475,35.77V48.23a11.31,11.31,0,0,1-3.6,8.54A13.11,13.11,0,0,1,462,60.2a13.31,13.31,0,0,1-9.52-3.43,11.24,11.24,0,0,1-3.64-8.54V35.77a11.24,11.24,0,0,1,3.64-8.54A13.31,13.31,0,0,1,462,23.8a13.11,13.11,0,0,1,9.42,3.43A11.31,11.31,0,0,1,475,35.77Zm-8.05,12V36.19a4.88,4.88,0,0,0-1.47-3.71,5.43,5.43,0,0,0-7.28,0,4.88,4.88,0,0,0-1.47,3.71V47.81a4.88,4.88,0,0,0,1.47,3.71,5.18,5.18,0,0,0,3.71,1.4,5,5,0,0,0,3.57-1.4A4.88,4.88,0,0,0,466.92,47.81Z"/><polygon class="cls-1" points="28.27 10.49 0 40.65 18.85 40.65 18.85 59.5 37.7 59.5 37.7 40.65 56.55 40.65 28.27 10.49"/></svg>